<svg xmlns="http://www.w3.org/2000/svg" viewBox="0 0 280 72" role="img" aria-label="EcoEat — Delivery &amp; Surplus Food">
  <g transform="translate(8,8)">
    <path fill="none" stroke="#1A5632" stroke-width="1.8" d="M28 4c8 2 14 10 14 20v8c0 6-4 11-10 13l-2 10h-8l-2-10c-6-2-10-7-10-13v-8c0-10 6-18 14-20z"/>
    <path fill="#1A5632" d="M28 12c-4 3-6 8-6 14 0 5 2 9 6 12 4-3 6-7 6-12 0-6-2-11-6-14z"/>
    <path fill="none" stroke="#1A5632" stroke-width="1.5" stroke-linecap="round" d="M28 18v14M24 22h8M24 30h8"/>
  </g>
  <text x="62" y="38" font-family="system-ui,Segoe UI,Arial,sans-serif" font-size="28" font-weight="800" fill="#1A5632" letter-spacing="0.02em">ECOEAT</text>
  <text x="62" y="56" font-family="system-ui,Segoe UI,Arial,sans-serif" font-size="8.5" font-weight="600" fill="#1A5632" letter-spacing="0.14em">DELIVERY &amp; SURPLUS FOOD</text>
</svg>
